<svg width="228" height="62" viewBox="0 0 228 62" fill="none" xmlns="http://www.w3.org/2000/svg">
<path d="M10.27 0.804688H12.8145V14.397C12.8145 16.2339 12.2607 17.6709 11.1533 18.708C10.0547 19.7451 8.58691 20.2637 6.75 20.2637C4.84277 20.2637 3.35742 19.7759 2.29395 18.8003C1.23047 17.8247 0.69873 16.458 0.69873 14.7002H3.22998C3.22998 15.7988 3.52881 16.6558 4.12646 17.271C4.73291 17.8862 5.60742 18.1938 6.75 18.1938C7.7959 18.1938 8.63965 17.8643 9.28125 17.2051C9.93164 16.5459 10.2612 15.623 10.27 14.4365V0.804688ZM16.0972 12.7358C16.0972 11.3384 16.3696 10.0815 16.9146 8.96533C17.4683 7.84912 18.2329 6.98779 19.2085 6.38135C20.1929 5.7749 21.3135 5.47168 22.5703 5.47168C24.5127 5.47168 26.0815 6.14404 27.2769 7.48877C28.481 8.8335 29.083 10.6221 29.083 12.8545V13.0259C29.083 14.4146 28.8149 15.6626 28.2788 16.77C27.7515 17.8687 26.9912 18.7256 25.998 19.3408C25.0137 19.9561 23.8799 20.2637 22.5967 20.2637C20.6631 20.2637 19.0942 19.5913 17.8901 18.2466C16.6948 16.9019 16.0972 15.1221 16.0972 12.9072V12.7358ZM18.5493 13.0259C18.5493 14.6079 18.9141 15.8779 19.6436 16.8359C20.3818 17.7939 21.3662 18.2729 22.5967 18.2729C23.8359 18.2729 24.8203 17.7896 25.5498 16.8228C26.2793 15.8472 26.644 14.4849 26.644 12.7358C26.644 11.1714 26.2705 9.90576 25.5234 8.93896C24.7852 7.96338 23.8008 7.47559 22.5703 7.47559C21.3662 7.47559 20.395 7.95459 19.6567 8.9126C18.9185 9.87061 18.5493 11.2417 18.5493 13.0259ZM34.7915 20H32.3525V5.73535H34.7915V20ZM32.1548 1.95166C32.1548 1.55615 32.2734 1.22217 32.5107 0.949707C32.7568 0.677246 33.1172 0.541016 33.5918 0.541016C34.0664 0.541016 34.4268 0.677246 34.6729 0.949707C34.9189 1.22217 35.042 1.55615 35.042 1.95166C35.042 2.34717 34.9189 2.67676 34.6729 2.94043C34.4268 3.2041 34.0664 3.33594 33.5918 3.33594C33.1172 3.33594 32.7568 3.2041 32.5107 2.94043C32.2734 2.67676 32.1548 2.34717 32.1548 1.95166ZM41.0142 5.73535L41.0933 7.52832C42.1831 6.15723 43.6069 5.47168 45.3647 5.47168C48.3794 5.47168 49.8999 7.17236 49.9263 10.5737V20H47.4873V10.5605C47.4785 9.53223 47.2412 8.77197 46.7754 8.27979C46.3184 7.7876 45.6021 7.5415 44.6265 7.5415C43.8354 7.5415 43.1411 7.75244 42.5435 8.17432C41.9458 8.59619 41.48 9.1499 41.146 9.83545V20H38.707V5.73535H41.0142ZM72.6284 20H60.0513V18.2466L66.6958 10.8638C67.6802 9.74756 68.3569 8.84229 68.7261 8.14795C69.104 7.44482 69.293 6.71973 69.293 5.97266C69.293 4.9707 68.9897 4.14893 68.3833 3.50732C67.7769 2.86572 66.9683 2.54492 65.9575 2.54492C64.7446 2.54492 63.7998 2.89209 63.123 3.58643C62.4551 4.27197 62.1211 5.22998 62.1211 6.46045H59.6821C59.6821 4.69385 60.249 3.26562 61.3828 2.17578C62.5254 1.08594 64.0503 0.541016 65.9575 0.541016C67.7417 0.541016 69.1523 1.01123 70.1895 1.95166C71.2266 2.8833 71.7451 4.12695 71.7451 5.68262C71.7451 7.57227 70.541 9.82227 68.1328 12.4326L62.9912 18.0093H72.6284V20ZM87.249 11.813C87.249 14.6694 86.7612 16.792 85.7856 18.1807C84.8101 19.5693 83.2852 20.2637 81.2109 20.2637C79.1631 20.2637 77.647 19.5869 76.6626 18.2334C75.6782 16.8711 75.1685 14.8408 75.1333 12.1426V8.88623C75.1333 6.06494 75.6211 3.96875 76.5967 2.59766C77.5723 1.22656 79.1016 0.541016 81.1846 0.541016C83.25 0.541016 84.7705 1.20459 85.7461 2.53174C86.7217 3.8501 87.2227 5.88916 87.249 8.64893V11.813ZM84.8101 8.47754C84.8101 6.41211 84.52 4.90918 83.9399 3.96875C83.3599 3.01953 82.4414 2.54492 81.1846 2.54492C79.9365 2.54492 79.0269 3.01514 78.4556 3.95557C77.8843 4.896 77.5898 6.3418 77.5723 8.29297V12.1953C77.5723 14.2695 77.8711 15.8032 78.4688 16.7964C79.0752 17.7808 79.9893 18.2729 81.2109 18.2729C82.415 18.2729 83.3071 17.8071 83.8872 16.8755C84.4761 15.9438 84.7837 14.4761 84.8101 12.4722V8.47754ZM102.41 11.813C102.41 14.6694 101.922 16.792 100.947 18.1807C99.9712 19.5693 98.4463 20.2637 96.3721 20.2637C94.3242 20.2637 92.8081 19.5869 91.8237 18.2334C90.8394 16.8711 90.3296 14.8408 90.2944 12.1426V8.88623C90.2944 6.06494 90.7822 3.96875 91.7578 2.59766C92.7334 1.22656 94.2627 0.541016 96.3457 0.541016C98.4111 0.541016 99.9316 1.20459 100.907 2.53174C101.883 3.8501 102.384 5.88916 102.41 8.64893V11.813ZM99.9712 8.47754C99.9712 6.41211 99.6812 4.90918 99.1011 3.96875C98.521 3.01953 97.6025 2.54492 96.3457 2.54492C95.0977 2.54492 94.188 3.01514 93.6167 3.95557C93.0454 4.896 92.751 6.3418 92.7334 8.29297V12.1953C92.7334 14.2695 93.0322 15.8032 93.6299 16.7964C94.2363 17.7808 95.1504 18.2729 96.3721 18.2729C97.5762 18.2729 98.4683 17.8071 99.0483 16.8755C99.6372 15.9438 99.9448 14.4761 99.9712 12.4722V8.47754ZM112.772 9.70361H118.125V12.0107H112.772V18.0752H110.32V12.0107H104.968V9.70361H110.32V4.10059H112.772V9.70361ZM136.608 20C136.468 19.7188 136.354 19.2178 136.266 18.4971C135.132 19.6748 133.778 20.2637 132.205 20.2637C130.799 20.2637 129.643 19.8682 128.738 19.0771C127.841 18.2773 127.393 17.2666 127.393 16.0449C127.393 14.5596 127.956 13.4082 129.081 12.5908C130.214 11.7646 131.805 11.3516 133.853 11.3516H136.226V10.231C136.226 9.37842 135.971 8.70166 135.461 8.20068C134.952 7.69092 134.2 7.43604 133.207 7.43604C132.337 7.43604 131.607 7.65576 131.019 8.09521C130.43 8.53467 130.135 9.06641 130.135 9.69043H127.683C127.683 8.97852 127.934 8.29297 128.435 7.63379C128.944 6.96582 129.63 6.43848 130.491 6.05176C131.361 5.66504 132.315 5.47168 133.352 5.47168C134.996 5.47168 136.283 5.88477 137.215 6.71094C138.146 7.52832 138.63 8.65771 138.665 10.0991V16.6646C138.665 17.9741 138.832 19.0156 139.166 19.7891V20H136.608ZM132.561 18.1411C133.326 18.1411 134.051 17.9434 134.736 17.5479C135.422 17.1523 135.918 16.6382 136.226 16.0054V13.0786H134.314C131.326 13.0786 129.832 13.9531 129.832 15.7021C129.832 16.4668 130.087 17.0645 130.597 17.4951C131.106 17.9258 131.761 18.1411 132.561 18.1411ZM144.782 5.73535L144.848 7.31738C145.894 6.08691 147.305 5.47168 149.08 5.47168C151.075 5.47168 152.433 6.23633 153.154 7.76562C153.628 7.08008 154.244 6.52637 155 6.10449C155.764 5.68262 156.665 5.47168 157.702 5.47168C160.831 5.47168 162.422 7.12842 162.475 10.4419V20H160.036V10.5869C160.036 9.56738 159.803 8.80713 159.337 8.30615C158.871 7.79639 158.089 7.5415 156.99 7.5415C156.085 7.5415 155.333 7.81396 154.736 8.35889C154.138 8.89502 153.791 9.62012 153.694 10.5342V20H151.242V10.6528C151.242 8.57861 150.227 7.5415 148.197 7.5415C146.597 7.5415 145.503 8.22266 144.914 9.58496V20H142.475V5.73535H144.782ZM174.973 20C174.832 19.7188 174.718 19.2178 174.63 18.4971C173.496 19.6748 172.143 20.2637 170.569 20.2637C169.163 20.2637 168.007 19.8682 167.102 19.0771C166.206 18.2773 165.757 17.2666 165.757 16.0449C165.757 14.5596 166.32 13.4082 167.445 12.5908C168.579 11.7646 170.169 11.3516 172.217 11.3516H174.59V10.231C174.59 9.37842 174.335 8.70166 173.826 8.20068C173.316 7.69092 172.564 7.43604 171.571 7.43604C170.701 7.43604 169.972 7.65576 169.383 8.09521C168.794 8.53467 168.5 9.06641 168.5 9.69043H166.047C166.047 8.97852 166.298 8.29297 166.799 7.63379C167.309 6.96582 167.994 6.43848 168.855 6.05176C169.726 5.66504 170.679 5.47168 171.716 5.47168C173.36 5.47168 174.647 5.88477 175.579 6.71094C176.511 7.52832 176.994 8.65771 177.029 10.0991V16.6646C177.029 17.9741 177.196 19.0156 177.53 19.7891V20H174.973ZM170.925 18.1411C171.69 18.1411 172.415 17.9434 173.101 17.5479C173.786 17.1523 174.283 16.6382 174.59 16.0054V13.0786H172.679C169.69 13.0786 168.196 13.9531 168.196 15.7021C168.196 16.4668 168.451 17.0645 168.961 17.4951C169.471 17.9258 170.125 18.1411 170.925 18.1411ZM183.146 18.0093H191.492V20H180.167V18.207L188.038 7.75244H180.286V5.73535H191.096V7.4624L183.146 18.0093ZM196.897 20H194.458V5.73535H196.897V20ZM194.26 1.95166C194.26 1.55615 194.379 1.22217 194.616 0.949707C194.862 0.677246 195.223 0.541016 195.697 0.541016C196.172 0.541016 196.532 0.677246 196.778 0.949707C197.024 1.22217 197.147 1.55615 197.147 1.95166C197.147 2.34717 197.024 2.67676 196.778 2.94043C196.532 3.2041 196.172 3.33594 195.697 3.33594C195.223 3.33594 194.862 3.2041 194.616 2.94043C194.379 2.67676 194.26 2.34717 194.26 1.95166ZM203.12 5.73535L203.199 7.52832C204.289 6.15723 205.712 5.47168 207.47 5.47168C210.485 5.47168 212.005 7.17236 212.032 10.5737V20H209.593V10.5605C209.584 9.53223 209.347 8.77197 208.881 8.27979C208.424 7.7876 207.708 7.5415 206.732 7.5415C205.941 7.5415 205.247 7.75244 204.649 8.17432C204.051 8.59619 203.585 9.1499 203.251 9.83545V20H200.812V5.73535H203.12ZM215.13 12.749C215.13 10.5254 215.644 8.75879 216.672 7.44922C217.701 6.13086 219.063 5.47168 220.759 5.47168C222.5 5.47168 223.857 6.08691 224.833 7.31738L224.952 5.73535H227.18V19.6572C227.18 21.5029 226.63 22.9575 225.532 24.021C224.442 25.0845 222.974 25.6162 221.128 25.6162C220.1 25.6162 219.094 25.3965 218.109 24.957C217.125 24.5176 216.374 23.9155 215.855 23.1509L217.121 21.6875C218.167 22.9795 219.445 23.6255 220.957 23.6255C222.144 23.6255 223.066 23.2915 223.726 22.6235C224.394 21.9556 224.728 21.0151 224.728 19.8022V18.5762C223.752 19.7012 222.42 20.2637 220.733 20.2637C219.063 20.2637 217.709 19.5913 216.672 18.2466C215.644 16.9019 215.13 15.0693 215.13 12.749ZM217.582 13.0259C217.582 14.6343 217.912 15.8999 218.571 16.8228C219.23 17.7368 220.153 18.1938 221.339 18.1938C222.877 18.1938 224.007 17.4951 224.728 16.0977V9.58496C223.98 8.22266 222.86 7.5415 221.366 7.5415C220.179 7.5415 219.252 8.00293 218.584 8.92578C217.916 9.84863 217.582 11.2153 217.582 13.0259ZM7.56738 54.2729C8.4375 54.2729 9.19775 54.0093 9.84814 53.4819C10.4985 52.9546 10.8589 52.2954 10.9292 51.5044H13.2363C13.1924 52.3218 12.9111 53.0996 12.3926 53.8379C11.874 54.5762 11.1797 55.165 10.3096 55.6045C9.44824 56.0439 8.53418 56.2637 7.56738 56.2637C5.625 56.2637 4.07812 55.6177 2.92676 54.3257C1.78418 53.0249 1.21289 51.2495 1.21289 48.9995V48.5908C1.21289 47.2021 1.46777 45.9673 1.97754 44.8862C2.4873 43.8052 3.2168 42.9658 4.16602 42.3682C5.12402 41.7705 6.25342 41.4717 7.5542 41.4717C9.15381 41.4717 10.481 41.9507 11.5356 42.9087C12.5991 43.8667 13.166 45.1104 13.2363 46.6396H10.9292C10.8589 45.7168 10.5073 44.9609 9.87451 44.3721C9.25049 43.7744 8.47705 43.4756 7.5542 43.4756C6.31494 43.4756 5.35254 43.9238 4.66699 44.8203C3.99023 45.708 3.65186 46.9956 3.65186 48.6831V49.1445C3.65186 50.7881 3.99023 52.0537 4.66699 52.9414C5.34375 53.8291 6.31055 54.2729 7.56738 54.2729ZM15.3325 48.7358C15.3325 47.3384 15.605 46.0815 16.1499 44.9653C16.7036 43.8491 17.4683 42.9878 18.4438 42.3813C19.4282 41.7749 20.5488 41.4717 21.8057 41.4717C23.748 41.4717 25.3169 42.144 26.5122 43.4888C27.7163 44.8335 28.3184 46.6221 28.3184 48.8545V49.0259C28.3184 50.4146 28.0503 51.6626 27.5142 52.77C26.9868 53.8687 26.2266 54.7256 25.2334 55.3408C24.249 55.9561 23.1152 56.2637 21.832 56.2637C19.8984 56.2637 18.3296 55.5913 17.1255 54.2466C15.9302 52.9019 15.3325 51.1221 15.3325 48.9072V48.7358ZM17.7847 49.0259C17.7847 50.6079 18.1494 51.8779 18.8789 52.8359C19.6172 53.7939 20.6016 54.2729 21.832 54.2729C23.0713 54.2729 24.0557 53.7896 24.7852 52.8228C25.5146 51.8472 25.8794 50.4849 25.8794 48.7358C25.8794 47.1714 25.5059 45.9058 24.7588 44.939C24.0205 43.9634 23.0361 43.4756 21.8057 43.4756C20.6016 43.4756 19.6304 43.9546 18.8921 44.9126C18.1538 45.8706 17.7847 47.2417 17.7847 49.0259ZM33.6709 41.7354L33.7368 43.3174C34.7827 42.0869 36.1934 41.4717 37.9688 41.4717C39.9639 41.4717 41.3218 42.2363 42.0425 43.7656C42.5171 43.0801 43.1323 42.5264 43.8882 42.1045C44.6528 41.6826 45.5537 41.4717 46.5908 41.4717C49.7197 41.4717 51.3105 43.1284 51.3633 46.4419V56H48.9243V46.5869C48.9243 45.5674 48.6914 44.8071 48.2256 44.3062C47.7598 43.7964 46.9775 43.5415 45.8789 43.5415C44.9736 43.5415 44.2222 43.814 43.6245 44.3589C43.0269 44.895 42.6797 45.6201 42.583 46.5342V56H40.1309V46.6528C40.1309 44.5786 39.1157 43.5415 37.0854 43.5415C35.4858 43.5415 34.3916 44.2227 33.8027 45.585V56H31.3638V41.7354H33.6709ZM67.1045 49.0259C67.1045 51.1968 66.6079 52.9458 65.6147 54.2729C64.6216 55.6001 63.2769 56.2637 61.5806 56.2637C59.8491 56.2637 58.4868 55.7144 57.4937 54.6157V61.4844H55.0547V41.7354H57.2827L57.4014 43.3174C58.3945 42.0869 59.7744 41.4717 61.541 41.4717C63.2549 41.4717 64.6084 42.1177 65.6016 43.4097C66.6035 44.7017 67.1045 46.499 67.1045 48.8018V49.0259ZM64.6655 48.749C64.6655 47.1406 64.3228 45.8706 63.6372 44.939C62.9517 44.0073 62.0112 43.5415 60.8159 43.5415C59.3394 43.5415 58.2319 44.1963 57.4937 45.5059V52.3218C58.2231 53.6226 59.3394 54.2729 60.8423 54.2729C62.0112 54.2729 62.9385 53.8115 63.624 52.8887C64.3184 51.957 64.6655 50.5771 64.6655 48.749ZM79.0225 56C78.8818 55.7188 78.7676 55.2178 78.6797 54.4971C77.5459 55.6748 76.1924 56.2637 74.6191 56.2637C73.2129 56.2637 72.0571 55.8682 71.1519 55.0771C70.2554 54.2773 69.8071 53.2666 69.8071 52.0449C69.8071 50.5596 70.3696 49.4082 71.4946 48.5908C72.6284 47.7646 74.2192 47.3516 76.2671 47.3516H78.6401V46.231C78.6401 45.3784 78.3853 44.7017 77.8755 44.2007C77.3657 43.6909 76.6143 43.436 75.6211 43.436C74.751 43.436 74.0215 43.6558 73.4326 44.0952C72.8438 44.5347 72.5493 45.0664 72.5493 45.6904H70.0972C70.0972 44.9785 70.3477 44.293 70.8486 43.6338C71.3584 42.9658 72.0439 42.4385 72.9053 42.0518C73.7754 41.665 74.729 41.4717 75.7661 41.4717C77.4097 41.4717 78.6973 41.8848 79.6289 42.7109C80.5605 43.5283 81.0439 44.6577 81.0791 46.0991V52.6646C81.0791 53.9741 81.2461 55.0156 81.5801 55.7891V56H79.0225ZM74.9751 54.1411C75.7397 54.1411 76.4648 53.9434 77.1504 53.5479C77.8359 53.1523 78.3325 52.6382 78.6401 52.0054V49.0786H76.7285C73.7402 49.0786 72.2461 49.9531 72.2461 51.7021C72.2461 52.4668 72.501 53.0645 73.0107 53.4951C73.5205 53.9258 74.1753 54.1411 74.9751 54.1411ZM87.2095 41.7354L87.2886 43.5283C88.3784 42.1572 89.8022 41.4717 91.5601 41.4717C94.5747 41.4717 96.0952 43.1724 96.1216 46.5737V56H93.6826V46.5605C93.6738 45.5322 93.4365 44.772 92.9707 44.2798C92.5137 43.7876 91.7974 43.5415 90.8218 43.5415C90.0308 43.5415 89.3364 43.7524 88.7388 44.1743C88.1411 44.5962 87.6753 45.1499 87.3413 45.8354V56H84.9023V41.7354H87.2095ZM102.45 56H100.011V41.7354H102.45V56ZM99.813 37.9517C99.813 37.5562 99.9316 37.2222 100.169 36.9497C100.415 36.6772 100.775 36.541 101.25 36.541C101.725 36.541 102.085 36.6772 102.331 36.9497C102.577 37.2222 102.7 37.5562 102.7 37.9517C102.7 38.3472 102.577 38.6768 102.331 38.9404C102.085 39.2041 101.725 39.3359 101.25 39.3359C100.775 39.3359 100.415 39.2041 100.169 38.9404C99.9316 38.6768 99.813 38.3472 99.813 37.9517ZM112.285 56.2637C110.351 56.2637 108.778 55.6309 107.565 54.3652C106.352 53.0908 105.746 51.3901 105.746 49.2632V48.8149C105.746 47.3999 106.014 46.1387 106.55 45.0312C107.095 43.915 107.851 43.0449 108.817 42.4209C109.793 41.7881 110.848 41.4717 111.981 41.4717C113.836 41.4717 115.277 42.0825 116.306 43.3042C117.334 44.5259 117.848 46.2749 117.848 48.5513V49.5664H108.185C108.22 50.9727 108.628 52.1108 109.411 52.981C110.202 53.8423 111.204 54.2729 112.417 54.2729C113.278 54.2729 114.007 54.0972 114.605 53.7456C115.203 53.394 115.726 52.9282 116.174 52.3481L117.664 53.5083C116.468 55.3452 114.675 56.2637 112.285 56.2637ZM111.981 43.4756C110.997 43.4756 110.171 43.8359 109.503 44.5566C108.835 45.2686 108.422 46.2705 108.264 47.5625H115.409V47.3779C115.339 46.1387 115.005 45.1807 114.407 44.5039C113.81 43.8184 113.001 43.4756 111.981 43.4756ZM128.988 52.2163C128.988 51.5571 128.738 51.0474 128.237 50.687C127.745 50.3179 126.879 50.0015 125.64 49.7378C124.409 49.4741 123.429 49.1577 122.7 48.7886C121.979 48.4194 121.443 47.98 121.091 47.4702C120.749 46.9604 120.577 46.354 120.577 45.6509C120.577 44.4819 121.069 43.4932 122.054 42.6846C123.047 41.876 124.312 41.4717 125.851 41.4717C127.468 41.4717 128.777 41.8892 129.779 42.7241C130.79 43.5591 131.295 44.627 131.295 45.9277H128.843C128.843 45.2598 128.558 44.6841 127.986 44.2007C127.424 43.7173 126.712 43.4756 125.851 43.4756C124.963 43.4756 124.269 43.6689 123.768 44.0557C123.267 44.4424 123.016 44.9478 123.016 45.5718C123.016 46.1606 123.249 46.6045 123.715 46.9033C124.181 47.2021 125.02 47.4878 126.233 47.7603C127.455 48.0327 128.443 48.3579 129.199 48.7358C129.955 49.1138 130.513 49.5708 130.874 50.1069C131.243 50.6343 131.427 51.2803 131.427 52.0449C131.427 53.3193 130.917 54.3433 129.898 55.1167C128.878 55.8813 127.556 56.2637 125.93 56.2637C124.787 56.2637 123.776 56.0615 122.897 55.6572C122.019 55.2529 121.329 54.6904 120.828 53.9697C120.335 53.2402 120.089 52.4536 120.089 51.6099H122.528C122.572 52.4272 122.897 53.0776 123.504 53.561C124.119 54.0356 124.928 54.2729 125.93 54.2729C126.853 54.2729 127.591 54.0884 128.145 53.7192C128.707 53.3413 128.988 52.8403 128.988 52.2163Z" fill="black"/>
</svg>
