<svg width="32" height="70" viewBox="0 0 32 70" fill="none" xmlns="http://www.w3.org/2000/svg">
<path d="M25.9 26.0001C26 25.5001 25.9 25.0001 26.1 24.6001C28.8 19.7001 29.2 14.4001 28.7 9.10009C28.5 7.30009 27.5 5.50009 26.6 3.90009C26 2.70009 24.6 2.50009 23.5 3.20009C22.1 4.10009 20.7 5.20009 19.8 6.50009C16.1 11.7001 13.6 17.4001 11.8 23.5001C10.6 27.7001 9.40002 31.9001 8.20002 36.1001C7.90002 37.3001 7.80002 38.6001 7.60002 39.9001C7.50002 40.9001 7.90002 41.3001 8.90002 41.2001C11 41.0001 13.2 40.9001 15.3 40.8001C19.2 40.5001 23.2 40.3001 27.1 40.0001C27.8 40.0001 28.5 39.7001 29.2 39.7001C29.9 39.7001 30.7 39.8001 31.4 39.8001C31.4 40.0001 31.4 40.3001 31.5 40.5001C30.9 40.6001 30.2 40.9001 29.6 40.9001C22.7 41.6001 15.8 42.2001 8.90002 42.9001C7.70002 43.0001 7.10002 43.6001 7.30002 44.9001C8.20002 52.2001 8.10002 59.6001 7.80002 66.9001C7.80002 67.9001 7.70002 69.3001 6.50002 69.2001C5.80002 69.2001 4.60002 68.0001 4.50002 67.3001C4.10002 64.3001 3.70002 61.2001 3.90002 58.1001C4.10002 53.9001 4.80002 49.6001 5.20002 45.4001C5.30002 44.2001 5.00002 43.5001 3.70002 43.7001C3.30002 43.8001 2.90002 43.8001 2.60002 43.6001C2.20002 43.4001 1.90002 42.9001 1.50002 42.6001C1.90002 42.3001 2.20002 41.7001 2.60002 41.6001C5.20002 40.7001 5.30002 40.8001 4.70002 38.0001C4.30002 35.9001 3.70002 33.9001 3.10002 31.5001C2.60002 32.8001 2.30002 33.6001 1.90002 34.5001C0.40002 33.0001 -0.0999801 28.8001 0.90002 27.4001C1.90002 26.0001 3.30002 25.9001 4.00002 27.6001C4.90002 29.6001 5.50002 31.8001 6.10002 33.9001C6.30002 34.5001 6.40002 35.1001 6.80002 35.7001C7.20002 34.0001 7.60002 32.3001 8.10002 30.7001C9.80002 25.5001 11.4 20.2001 13.3 15.1001C14.9 10.9001 16.9 6.80009 20.1 3.50009C21.1 2.50009 22.3 1.60009 23.7 1.20009C25.5 0.60009 27.2 1.40009 28.4 2.80009C30.6 5.40009 31.1 8.40009 31 11.7001C30.9 16.2001 30.1 20.5001 28.2 24.6001C27.9 25.3001 27.2 25.8001 26.6 26.5001C26.3 26.3001 26.1 26.1001 25.9 26.0001Z" fill="#302F40"/>
</svg>
