<svg width="20" height="13" viewBox="0 0 20 13" fill="none" xmlns="http://www.w3.org/2000/svg">
<path d="M19.8 1.19993C15.8 2.59993 12 3.69993 7.99999 3.89993C5.69999 3.99993 5.59999 4.19993 5.59999 6.39993C5.59999 8.09993 5.69999 9.89993 4.29999 11.1999C3.69999 11.6999 2.89999 11.9999 2.09999 12.2999C1.79999 11.6999 1.49999 10.9999 1.39999 10.3999C0.99999 7.79993 0.599988 5.19993 0.299988 2.49993C0.299988 2.09993 0.399987 1.49993 0.599987 1.29993C1.09999 0.999927 1.99999 0.599927 2.29999 0.799927C3.09999 1.39993 3.99999 1.19993 4.79999 1.49993C9.49999 2.99993 14.1 1.79993 18.7 0.999928C18.9 0.999928 19 0.999928 19.2 0.999928C19.3 0.999928 19.4 0.999929 19.8 1.19993Z" fill="#302F40"/>
</svg>
