<svg width="124" height="19" viewBox="0 0 124 19" fill="none" xmlns="http://www.w3.org/2000/svg">
<path d="M123.3 12.4999C122.4 13.1999 121.5 14.0999 120.5 14.4999C117.6 15.7999 114.7 17.0999 111.7 18.0999C108 19.3999 105.1 17.7999 102.9 14.7999C102.8 14.5999 102.6 14.3999 102.6 14.4999C99.3 15.6999 96.2 16.8999 93.1 17.7999C90.2 18.5999 87.3 18.2999 84.5 17.1999C83.7 16.8999 82.7 16.9999 81.8 16.9999C81.3 16.9999 78.1 17.9999 72.3 16.6999C70.4 16.4999 69.2 14.7999 68.4 12.9999C68.1 12.2999 67.8 11.6999 67.4 10.7999C66.5 11.8999 65.9 12.8999 65.1 13.6999C64.1 14.7999 62.9 15.8999 61.7 16.6999C60.8 17.2999 59.8 17.1999 59.3 16.0999C58.9 15.0999 58.2 15.2999 57.4 15.5999C55.4 16.3999 53.5 17.2999 51.4 17.8999C48.7 18.7999 46 18.4999 43.6 16.9999C42.8 16.4999 42.3 15.7999 41.6 15.2999C39.9 15.8999 38.1 16.3999 36.4 17.0999C34.2 17.9999 31.9 17.9999 29.7 17.2999C27.1 16.4999 24.6 17.1999 22.1 17.2999C19.3 17.2999 16.6 16.8999 13.8 16.8999C12.6 16.8999 11.3 17.1999 10.2 17.7999C8.20001 18.7999 6.40001 18.5999 4.50001 17.6999C2.60001 16.7999 1.20001 15.2999 0.700014 13.2999C0.300014 11.4999 0.300013 9.59995 0.300013 7.79995C0.200013 6.49995 0.900014 5.69995 2.20001 5.49995C2.80001 5.39995 3.40001 5.09995 4.30001 4.79995C4.20001 5.79995 4.20001 6.59995 4.10001 7.39995C3.60001 9.89995 3.90001 12.2999 5.20001 14.4999C6.50001 16.7999 9.60001 17.3999 11.9 15.8999C12.6 15.4999 13.3 15.0999 14 14.7999C15.5 14.1999 17.6 10.7999 17.4 9.19995C17.3 7.79995 15.9 7.09995 14 7.59995C13.4 7.69994 12.8 7.79995 11.9 7.99995C12.2 7.49995 12.2 7.19995 12.4 6.99995C13.9 5.59995 17.1 5.19995 18.9 5.99995C20.3 6.69995 20.7 7.79994 20 9.09995C19.2 10.5999 18.3 12.0999 17.3 13.3999C16.4 14.5999 16.8 15.1999 18 15.4999C21.5 16.2999 25.1 16.7999 28.4 14.6999C30.3 13.5999 31.1 11.6999 31.5 9.69995C31.7 8.89995 31.3 7.89995 30 7.89995C28.8 7.89995 27.5 7.89995 26.2 7.89995C27 6.19995 29.7 5.29995 31.8 5.69995C34.5 6.29995 35 7.39995 33.7 9.79995C33 11.1999 32.1 12.4999 31.2 13.6999C30.6 14.5999 30.6 15.1999 31.6 15.4999C32.5 15.7999 33.6 16.0999 34.5 15.8999C36.6 15.4999 38.6 14.7999 40.6 14.1999C41 14.0999 41.4 13.6999 41.6 13.2999C42 12.3999 42.4 11.4999 42.7 10.4999C43.4 7.79995 45.3 6.39995 47.8 5.79995C48.7 5.59995 50 5.69995 50.5 6.19995C51.3 6.99995 51.1 8.39995 50.1 9.19995C49 10.1999 47.8 11.0999 46.5 11.7999C44.7 12.7999 44.6 13.4999 46.1 14.8999C48.1 16.7999 51.8 17.1999 54.7 15.6999C55 15.5999 55.2 15.3999 55.5 15.1999C58 14.0999 58 14.0999 57.5 11.3999C57.3 10.2999 57.2 9.19995 57 8.09995C56.8 6.69994 58.6 4.89995 59.9 5.39995C60.2 5.49995 60.5 6.19994 60.5 6.59995C60.7 8.19994 60.7 9.79995 60.9 11.2999C61 11.8999 61.5 12.4999 61.8 12.9999C62.2 12.6999 62.8 12.3999 63.1 11.8999C64 10.5999 64.8 9.19995 65.6 7.79995C66.4 6.49995 67.8 5.99995 69.4 5.49995C69.5 8.79995 70 11.7999 72.6 13.3999C75.2 15.0999 78.2 16.1999 81.3 15.8999C80.7 12.9999 80.1 10.2999 79.5 7.49995C79.5 7.39995 79.3 7.09995 79.4 7.09995C81 5.69994 80.3 3.69995 80.9 1.99995C81 1.79995 81.1 1.39995 81.3 1.29995C81.9 0.899946 82.6 0.199946 83 0.299946C83.9 0.499946 83.9 1.39995 83.6 2.29995C83.5 2.49995 83.5 2.79995 83.5 3.09995C83.4 5.29994 83.6 5.49995 85.8 5.19995C90.2 4.59995 94.5 3.49995 98.6 1.89995C99.2 1.69995 99.8 1.59995 100.4 1.39995C100.5 1.59995 100.5 1.69995 100.6 1.89995C98.8 2.59995 97 3.39995 95.2 3.99995C91.6 5.09995 88 5.99995 84.4 6.89995C83.4 7.09995 82.9 7.49995 83.1 8.49995C83.4 10.0999 83.4 11.7999 84.1 13.2999C84.6 14.2999 85.7 15.3999 86.8 15.7999C90.3 17.0999 93.9 17.1999 97.5 15.4999C100.3 14.1999 102.8 12.9999 101.7 9.09995C100.9 6.09995 103 5.19994 105.7 4.59995C105.6 5.49995 105.6 6.29994 105.4 7.09995C104.5 11.0999 105.8 14.5999 109.2 15.6999C111.1 16.2999 113.4 15.9999 115.4 15.4999C117.2 15.0999 118.8 13.7999 120.5 12.8999C121.2 12.4999 122 12.0999 122.7 11.6999C123.2 12.1999 123.2 12.2999 123.3 12.4999ZM45.6 10.3999C45.8 10.4999 46 10.5999 46.1 10.6999C46.8 10.0999 47.5 9.59995 48.1 8.89995C48.3 8.69995 48 8.09995 48 7.59995C47.6 7.69994 47 7.59995 46.9 7.89995C46.3 8.79995 46 9.59995 45.6 10.3999Z" fill="#302F40"/>
</svg>
